<svg xmlns="http://www.w3.org/2000/svg" viewBox="0 0 100 100"><title>icon_accueil</title><g id="accueil"><path d="M89,39H87.17A11,11,0,0,0,78.05,22h-.64A11,11,0,0,0,68.29,4.88H31.71A11,11,0,0,0,22.59,22H22A11,11,0,0,0,12.83,39H11a11,11,0,0,0,0,22h1.85A11,11,0,0,0,22,78.05h.64a11,11,0,0,0,9.12,17.07H68.29a11,11,0,0,0,9.12-17.07h.64A11,11,0,0,0,87.17,61H89a11,11,0,1,0,0-22ZM25.61,15.85a6.1,6.1,0,0,1,6.1-6.09H68.29a6.1,6.1,0,1,1,0,12.19H31.71A6.1,6.1,0,0,1,25.61,15.85ZM15.85,32.93a6.11,6.11,0,0,1,6.1-6.1h56.1a6.1,6.1,0,1,1,0,12.19H59.65a14.58,14.58,0,0,0-19.3,0H22A6.1,6.1,0,0,1,15.85,32.93ZM59.76,50a9.9,9.9,0,1,1-2.21-6.1A9.65,9.65,0,0,1,59.76,50ZM11,56.1a6.1,6.1,0,1,1,0-12.2H36.71a14.55,14.55,0,0,0,0,12.2H11ZM74.39,84.15a6.1,6.1,0,0,1-6.1,6.09H31.71a6.1,6.1,0,1,1,0-12.19H68.29A6.1,6.1,0,0,1,74.39,84.15Zm9.76-17.08a6.11,6.11,0,0,1-6.1,6.1H22A6.1,6.1,0,1,1,22,61h18.4a14.58,14.58,0,0,0,19.3,0h18.4A6.1,6.1,0,0,1,84.15,67.07ZM89,56.1H63.29a14.55,14.55,0,0,0,0-12.2H89a6.1,6.1,0,1,1,0,12.2Z"/></g></svg>