<svg id="Calque_1" data-name="Calque 1" xmlns="http://www.w3.org/2000/svg" viewBox="0 0 200 126"><defs><style>.cls-1{fill:#fff;}</style></defs><title>logo</title><path class="cls-1" d="M36.17,2.23c.26.06,0,.12-.05.17.84-.12,1.8-.34,1.26-.57-.83.25-1,.14-1.92.43-.72,0-1.25-.08-1.13-.17a8.14,8.14,0,0,0-1.49.1A10.19,10.19,0,0,0,36.17,2.23Z"/><path class="cls-1" d="M39.85,9.28a3.54,3.54,0,0,0-.07-.62l0,.59Z"/><path class="cls-1" d="M19.9,12.11s0,0,0,0S20,12.19,19.9,12.11Z"/><path class="cls-1" d="M39.82,9.66v.6C39.83,10,39.83,9.8,39.82,9.66Z"/><path class="cls-1" d="M.31,18.54A2.14,2.14,0,0,1,.51,18C.35,18.16.3,16.32.31,18.54Z"/><path class="cls-1" d="M39.73,9.29a.7.7,0,0,1,.09.37c0-.14,0-.28,0-.41S39.75,9.2,39.73,9.29Z"/><path class="cls-1" d="M30.53,47.65l0-2C30.54,46.21,30.53,46.94,30.53,47.65Z"/><path class="cls-1" d="M.32,108a1.39,1.39,0,0,0,.17.72A1.73,1.73,0,0,1,.32,108Z"/><path class="cls-1" d="M30.53,39.76a7.76,7.76,0,0,0,.15-1.12c0-.08,0-.18-.05-.23Z"/><path class="cls-1" d="M7.35,109.77l-.42,0Z"/><polygon class="cls-1" points="39.24 108.79 39.24 108.79 39.23 108.79 39.24 108.79"/><path class="cls-1" d="M39.2,2.59a1.34,1.34,0,0,1,.12.24C39.26,2.72,39.23,2.64,39.2,2.59Z"/><path class="cls-1" d="M40,27c-.06-1.43-.13.33-.22.21-.25-2.2.31-5.17,0-8.34-.13-2.5-.35-3.14-.49-5.18v-.76c.12-.4.24.87.24.87a24.33,24.33,0,0,0,0-3.72c.06.27.11,0,.2-.4,0-1-.27-.7-.16-2.07a5.2,5.2,0,0,1,.29,1c-.06-1.23-.2-2.45-.27-3.72.13-.34.2.77.28,1.22,0-.72-.07-1.64-.1-2.45A5.79,5.79,0,0,0,39.62,3a1.1,1.1,0,0,0-.33-.54.85.85,0,0,0-.75-.23,1,1,0,0,1,.66.4c0-.06,0-.09,0-.09a.54.54,0,0,1,.34.36,1.71,1.71,0,0,1,.1.54c0,.16,0,.3,0,.44a4.18,4.18,0,0,1,0,.56,1.18,1.18,0,0,1-.16.48l0-.91c-.44.94.07,3.65,0,5.47l-.26-.62V3.2a.76.76,0,0,0-.76-.76H31.92a.79.79,0,0,0-.54.22l-.13.14a1.25,1.25,0,0,0-.06-.42,1.3,1.3,0,0,1,.73-.26l.51-.25-.58,0a1.27,1.27,0,0,0-.82.41h0c-.22,0-.69.3-1.69,1.14L28.06,5l-.58.34,1.19-1.21a6.1,6.1,0,0,0-1.54,1.65,2.3,2.3,0,0,0-.73.46L25.24,7.91c-.27.07.43-.82-.56.07-.55.76.85-.41-.17.75-.79.56-.69.27-1.39,1.17-.18,0-.05-.16.24-.51a29.75,29.75,0,0,0-2.09,2.42,3.69,3.69,0,0,0-.42.34l-.38.34a.29.29,0,0,1-.47,0,.79.79,0,0,1-.11-.19c-.06-.1-.07-.17,0-.2a18.79,18.79,0,0,1-2.11-1.71C19.24,11.33,15.33,8,16,8c-1.14-.64-3.31-3.09-5-4.52a2.12,2.12,0,0,1,.45.35c-.43-.44-.68-.74-.9-1s-.2-.26-.3-.39L10,2.2l-.23-.27-.06-.06c-.1,0-.34-.14-.71-.21a1.86,1.86,0,0,0-.63,0L7.9,1.7c-.64.08-1.38.14-1.91.23-1.53-.28.93-.35.45-.62.08.24-2.66.24-2.14.44a5,5,0,0,1-1.61-.33.36.36,0,0,1-.28.17c-.21,0-.49,0-.77.07a1.44,1.44,0,0,0-.83.47,1.34,1.34,0,0,0-.32,1c0,.17,0,.32,0,.46a1.94,1.94,0,0,1,0,.24,2.86,2.86,0,0,1-.06.31,1.2,1.2,0,0,1-.1.27,3.38,3.38,0,0,0,0,1.21C.13,6.53,0,4.87,0,4.87c0,1.9.28.89.44,1.29C.52,8.42.23,7.21.09,8c.07,1.41.33,2.49.32,3.54,0,.08-.07.29-.12.05.22,1.49,0,4.43.29,6.17A.92.92,0,0,1,.51,18c.14-.28.28-.32.38-.26a6,6,0,0,1,0,1.89,2.1,2.1,0,0,0-.13-.81l.08.89c-.26.8-.09-1.21-.29-1.21.09,1.73.31,3.75.23,5.08-.25.28-.08-3.1-.31-1.33l.1-2.06c-.41,1.57,0-1.25-.41.2-.08,2.7.13,3,0,5.72.15.61.22-.2.36.41.26,3.84-.65,3-.3,5.84a6,6,0,0,1,.32,3L.3,34.66c0,2.62.42,1.5.22,4.24-.11-.49-.09-2.06-.13-1.66C.16,39,.56,38.49.56,39.86l-.26.28c0,2.79.23,5.87.27,9-.07-.17-.16-.7-.23,0C.46,53,.3,57.44.15,61.2l.22,1.43c0,.34-.1.62-.14.26-.08,1.47.14.08.23.78s-.13,1.1-.2.57A78.63,78.63,0,0,1,.43,74.33L.37,73.8c-.09,2.12.45,2.39.25,4.36l0-.38C.48,82.39.68,87.47.35,91c.32.67-.15,4.56.3,4.86-.22,2.62-.3,1.87-.45,5.57,0,1,.28,1.48.33,2.7l-.24,0,.25,1.66-.28.88,0,.57,0,.75a4.2,4.2,0,0,1,.06-.82c0-.18.08-.29.11-.25,0,.23,0,.43,0,.72a2.38,2.38,0,0,0,.17,1.1,1.46,1.46,0,0,0,.8.71,3.86,3.86,0,0,0,1,.14,6.27,6.27,0,0,1,1.55.22l2.12-.1,1.06,0a4.3,4.3,0,0,0,1.47-.19,1.17,1.17,0,0,1-.77.25l-.36,0-.21,0h0l.26,0c.3,0,.52,0,.66,0a2.4,2.4,0,0,1,.45,0,.57.57,0,0,0,.39-.12,1.72,1.72,0,0,0,.42-.41,1.75,1.75,0,0,0,.3-1c-.09.47-.12-.3-.18-.38s0-.32,0-.51,0-.35,0-.55c0-.39,0-.84,0-1.3,0-.94,0-2,0-2.83l.16.33c0-3.14-.08-6.62-.07-10.15-.08,1.27-.36,1-.39-.06l.25-.41c-.15-.67-.09,1.08-.28-.29,0-1.32.28-.89.36-.13l-.08-1.6c.07-.1.11.28.2.37-.15-.65.25-2.76,0-3.71l.07-.09c0-3.52-.08-5.12-.1-8-.21-.06-.16-1.18-.33-2,.06-2.11.23-4.45.21-7-.1-1.79-.18-.53-.3-1.33.19-.13.17-2.67.31-1.35,0-3.06,0-3.9-.2-7.76-.08.42-.11.89-.18.64,0-.7.09-1.59.18-1.49l0,.19c-.29-4.34.57-10,.16-13.45l0,.19-.21-3.58c0-1.64.15,1,.27-.23-.33-3.86,0-6.1-.17-9.27.57-2.46,0-8.73.32-12.06l-.13.2a4.79,4.79,0,0,1,.11-1.67c-.11.09-.13.93-.2.39,0-.83,0-1.67,0-2.52,0-.13,0-.28.06-.39a.23.23,0,0,1,.36,0l3.43,3.56L17.44,24l1,1,.36.37a2,2,0,0,0,.52.42,1.92,1.92,0,0,0,2.36-.39l.64-.61,1-1c2-1.9.6-1.59,3.26-3.79l-.51.87c.92-1,1.88-2,2.85-3l1.33-1.35a1.14,1.14,0,0,1,.16-.15.17.17,0,0,1,.21,0c.06.06,0,.15,0,.22v2.62c0,1.38,0,2.75.11,4.1a2.45,2.45,0,0,1-.13-.86,15.31,15.31,0,0,0,.14,4.23c0,.84-.14.19-.21.71-.11,1.14.23,2.86.05,3.47,0,.07,0-.09-.06-.26.05,1,0,3.13.17,2.48-.1,2,.1,3.87,0,5.48.24,1-.11,3.46.22,3.8-.34-.15-.28,3.54-.12,4.82-.1-.43-.1,1.11-.25.61,0,1.46.07,2.79.25,2.54-.41,2.69.33,5.4-.2,6.91.19,4.33.31,8.34.39,12.24-.34-.14,0-4.31-.39-4.14.14,3.7.43,5.83.35,9.5-.05,1-.15-.54-.21-.86.14,3.69,0,7.14.16,10.43a2.92,2.92,0,0,1-.09-.7c0,.64-.05,1.5.1,1.43l0-.63c.23-1,.47,2.57.59,2.69-.45-1.1-.11,3.24-.68,1.5,0,.42.11,1,.21.86,0,.63-.09.83-.21.19.09,2.32.25,1.5.25,3.6-.08,0-.11-.43-.19-.65a20.8,20.8,0,0,1,.23,3.91c0-.09-.09,0-.1-.23,0,2.94.38,5.07.24,8.35-.33-1-.11,1.14-.39,1.31l.09,2c0-.19,0-.4.06-.56l.07-.36a3.71,3.71,0,0,0,.17,1.45,1.3,1.3,0,0,0,1.26.66l1.17,0c.34,0,.68,0,1,0l-1.17.12,3-.06-1.67-.1c1.6-.15-.17-.36,1.93-.28-.21,0,.18,0,.73,0s1.44.2,1.83-.21.18-1,.17-1.4a12.62,12.62,0,0,1,0-1.51c.09-.31.31.24.37,0-.23-.77-.06-3.69-.31-4.67.06.33.2.35.24.24l-.2-.65c.06-.73.09-.83.21-.71,0-2.2-.36.69-.2-1.91,0,.2,0,.1.07.53.08-2.62-.12-5.06,0-7.47.29-.71.07,2.11.32,1.29-.06-3.47-.35-7.18-.28-10.54l0,.63c-.4-.47.2-2.5,0-4.2,0,.42.22.55.18.43.06-2.3-.1-4.7-.23-8.18l.1.43c.1-1.35.06-3.57.1-5-.1-.44-.08-1.27-.23-.76.59-4.52-.32-8.61.17-12.62,0,.48.09,1.15.09.76l-.09-3.41c-.18.27-.11.45-.25,1.17A12.5,12.5,0,0,1,39.24,49c.12,1.53.28,0,.38-.68,0,.11-.11-.11-.17-.06.31-1.78-.35-.3-.14-2.73l.09.13c0-.91-.17-1.75-.14-2.73.2-.41.09,1,.26,1a25.84,25.84,0,0,1-.18-4c.06.59.06,1.43.11,2a12.61,12.61,0,0,0,.22-2.53v.1l0-.32a1.62,1.62,0,0,0,0,.22l.07-1.25c0,.4-.05.72-.06,1l.09-2-.06.6c-.53-1.73-.1-3.51-.45-5.84.33,2.26.19.37.42.55.07-.6.14-1.5.2-1.24-.18-1.1.15-1.84-.12-3.39C39.83,27.86,39.76,26.76,40,27ZM39.2,9.1l.21,1.45c0,.24-.14.43-.21.35ZM.64,49.1c0-.38,0-.7,0-.91,0,.19,0,.45,0,.91Zm0,3.72c0-.45,0-1,0-1.61.07-.13.15,0,.14.38C.75,51.39.71,52.26.65,52.82Zm38.74,4.91a.17.17,0,0,1-.19,0V56.53A2.94,2.94,0,0,1,39.39,57.73ZM39.2,20.84V19.35a3.27,3.27,0,0,1,.18,1Z"/><polygon class="cls-1" points="0.24 104.14 0.29 104.14 0.24 103.81 0.24 104.14"/><path class="cls-1" d="M39.62,48.33a.72.72,0,0,0,.05-.27A1.87,1.87,0,0,0,39.62,48.33Z"/><path class="cls-1" d="M39.77,32.69a.2.2,0,0,0-.09-.13h0Z"/><path class="cls-1" d="M30.79,83.79v-.27C30.74,82.91,30.75,83.33,30.79,83.79Z"/><path class="cls-1" d="M39,109.1c.21-.12.28-.26.25-.31a1.4,1.4,0,0,1-1.18.45A1.59,1.59,0,0,0,39,109.1Z"/><path class="cls-1" d="M30.53,47.86h0v0Z"/><path class="cls-1" d="M36.54,109.24a11,11,0,0,0,1.52,0C37.55,109.23,37,109.2,36.54,109.24Z"/><path class="cls-1" d="M39.71,2.53s0,0-.06,0a1.19,1.19,0,0,1,.12.22A1.39,1.39,0,0,0,39.71,2.53Z"/><path class="cls-1" d="M39.65,2.5a1.27,1.27,0,0,0-.35-.38A2.38,2.38,0,0,1,39.65,2.5Z"/><path class="cls-1" d="M39.3,2.12a1.25,1.25,0,0,0-1-.24A1.55,1.55,0,0,1,39.3,2.12Z"/><path class="cls-1" d="M39.79,15c0-.65.17-1.64.12-2.55l-.06-.08C40,12.75,39.66,14.34,39.79,15Z"/><polygon class="cls-1" points="39.72 94.66 39.84 93.73 39.66 93.29 39.72 94.66"/><path class="cls-1" d="M62.35,73c-.06-.22.06-1-.1-1.28a7.53,7.53,0,0,0,0,2.86c-.06.22-.12,0-.17,0,.12.72.34,1.55.57,1.09-.25-.72-.14-.89-.43-1.66C62.15,73.33,62.26,72.87,62.35,73Z"/><path class="cls-1" d="M62.65,82.77c0-.21,0-.38-.07-.54l0,.51Z"/><path class="cls-1" d="M53.4,78.86s0,0,0,0S53.4,78.77,53.4,78.86Z"/><path class="cls-1" d="M62.62,83.1v.51A4.23,4.23,0,0,0,62.62,83.1Z"/><path class="cls-1" d="M53.5,111.54a2.08,2.08,0,0,1,.19-.49C53.54,111.21,53.49,109.63,53.5,111.54Z"/><path class="cls-1" d="M62.53,82.78a.53.53,0,0,1,.09.32c0-.13,0-.25,0-.36S62.54,82.7,62.53,82.78Z"/><path class="cls-1" d="M79.71,18.71l-1.71,0C78.48,18.7,79.1,18.71,79.71,18.71Z"/><path class="cls-1" d="M93.29,81.87a1.51,1.51,0,0,0,0-.39Z"/><path class="cls-1" d="M72.93,18.71a7.39,7.39,0,0,0-1-.15,1,1,0,0,0-.2.06Z"/><path class="cls-1" d="M93.4,61.23c-.08,1.09-.36.84-.38,0l.24-.35c-.15-.58-.09.93-.28-.25,0-1.14.28-.76.36-.11l-.08-1.38c.07-.08.11.24.21.32-.16-.56.24-2.37,0-3.19l.07-.07c0-3-.08-4.41-.09-6.88-.22-.05-.17-1-.34-1.75.06-1.81.23-3.83.21-6-.1-1.54-.18-.45-.3-1.14.19-.12.17-2.3.31-1.17,0-2.62,0-3.35-.19-6.67-.08.36-.12.77-.18.56,0-.6.08-1.37.17-1.28l0,.15c-.29-3.72.57-8.59.16-11.56l0,.17-.21-3.08c0-1.41.15.85.27-.2a35.09,35.09,0,0,1-.13-4.2c0-.63,0-1.23,0-1.85a2,2,0,0,0-.37-1.46,1.65,1.65,0,0,0-1.43-.55l-.33-.05-.23,0-.5-.07C90.06,9,89.66,9,89.24,9c-.85,0-1.81,0-2.79,0A43.42,43.42,0,0,1,81,8.91l.16.13c-.73.14-.89-.07-1.43-.11.07.11.8.13.34.2-6.25.16-12.9-.2-19.31-.32-2.34,0-1.33.7-4.28.38l.83-.25-.88,0-1,0A1.94,1.94,0,0,0,54,9.49a1.79,1.79,0,0,0-.57,1.37c0,1.26,0,2.53,0,3.79,0,.61,0,1.22,0,1.83a2.08,2.08,0,0,0,.37,1.46,1.69,1.69,0,0,0,1.3.65c.63,0,.8,0,1.12,0l.88,0,1.75-.07a2.22,2.22,0,0,1-.73.13,11.61,11.61,0,0,0,3.63-.14c.72,0,.17.13.61.21,1,.11,2.46-.23,3-.05.05,0-.09,0-.25.05.83-.05,2.71,0,2.16-.17,1.73.1,3.32-.09,4.71,0,.9-.23,3,.12,3.26-.22-.13.35,3,.28,4.14.12-.36.1,1,.11.53.25,1.25,0,2.4-.07,2.18-.24a8.58,8.58,0,0,0,.87.1l.43,0h.24a.22.22,0,0,1,.29.19,4.67,4.67,0,0,1,0,.56c0,.24,0,.47,0,.69a3.65,3.65,0,0,1-.2,1.16c.18,3.72.31,7.17.39,10.52-.34-.12,0-3.71-.39-3.56.14,3.18.43,5,.35,8.16-.05.82-.15-.46-.21-.74.14,3.18,0,6.14.16,9A2.38,2.38,0,0,1,84,44c0,.55,0,1.29.11,1.23l0-.54c.22-.89.47,2.21.59,2.31-.45-1-.11,2.79-.68,1.29,0,.36.11.82.21.74,0,.54-.09.72-.21.16.09,2,.25,1.29.25,3.1-.08,0-.11-.37-.2-.56A14.23,14.23,0,0,1,84.23,55c0-.08-.08,0-.09-.2,0,2.53.38,4.37.24,7.18-.33-.85-.11,1-.39,1.13l.08,1.55.14-.62c0,1.35.2,2.55.11,3.71l-.12-1,.06,2.54.1-1.44c.15,1.37.36-.15.29,1.66,0-.37,0,1.35-.18,2.06h0A10.56,10.56,0,0,1,84.59,74c-.09.26-.32-.21-.38,0,.24.66.07,3.17.32,4-.06-.28-.21-.3-.24-.2l.2.55c-.06.63-.09.72-.21.62,0,1.89.36-.6.2,1.64,0-.17,0-.09-.07-.46-.08,2.25.12,4.35,0,6.42-.29.61-.07-1.81-.32-1.11.06,3,.35,6.18.28,9.06l0-.53c.4.4-.2,2.15,0,3.61,0-.36-.22-.47-.18-.38-.06,2,.1,4,.23,7l-.1-.37c-.05.58-.06,1.35-.07,2.13,0,.39,0,.78,0,1.15,0,.18,0,.35,0,.52s0,.19,0,.28a.42.42,0,0,1-.11.39c-.07.08-.11.14.09.13a.94.94,0,0,1-.55,0l-.12,0h-.18l-.35,0c-.48,0-1-.05-1.41-.05-.93,0-1.84,0-2.74.08a27.13,27.13,0,0,1-5.26-.05c.41,0,1-.09.66-.09l-2.94.09c.24.18.39.11,1,.25a9.16,9.16,0,0,1-1.92.18c1.32-.11,0-.28-.58-.38.09.06-.1.11,0,.17-1.53-.31-.26.35-2.35.14l.11-.09a22,22,0,0,1-2.35.14c-.35-.2.84-.09.89-.26a16.73,16.73,0,0,0-1.75.17,4.78,4.78,0,0,1-1.6,0c.42-.05,1.17-.06,1.67-.11a8.7,8.7,0,0,0-1.2-.18c-.17,0-.36,0-.57-.13l0,0a.36.36,0,0,1-.07-.1v0a1.06,1.06,0,0,1,0-.47,1.38,1.38,0,0,0,0,.34,1,1,0,0,1,0-.25v-.15l0-.25,0-.5-.07.51c-.53-1.49-.1-3-.44-5,.33,1.94.19.32.42.47.06-.51.13-1.29.2-1.07-.19-.94.14-1.57-.13-2.91.08-.06,0-1,.2-.79-.06-1.23-.13.29-.23.18-.25-1.89.31-4.45,0-7.17-.13-2.15-.35-2.7-.48-4.46v-.65c.11-.35.24.75.24.75a17,17,0,0,0,0-3.19c.06.22.12,0,.2-.35,0-.9-.27-.6-.16-1.78a3.9,3.9,0,0,1,.3.89c-.07-1.06-.21-2.1-.27-3.19.13-.29.19.66.28,1a19.2,19.2,0,0,0-.32-3.56l-.06.59c0-.15.17,0,.2.29.16,1.06-.08,1.53-.15,1.58l0-.77c-.43.8.07,3.13,0,4.69L62,82.37V71.59a.76.76,0,0,0-.76-.76h-.16a1.2,1.2,0,0,0,.21-.35,1.57,1.57,0,0,1,.63.26,1.18,1.18,0,0,1,.58.43,1.3,1.3,0,0,0-1.26-.85h0a3.7,3.7,0,0,0-1.73-.39l-1.73.22L57.22,70h1.46a4.67,4.67,0,0,0-1.94.08,1.83,1.83,0,0,0-.73-.19c-.15,0-.25.06-.45.09a3.68,3.68,0,0,0-.69.12,1.45,1.45,0,0,0-.91.83c-.14.09-.06-.19,0-.32s0-.1-.09,0a1.3,1.3,0,0,0-.4.73c0,.72.13.38.2.21s.09-.15.11-.06a1.83,1.83,0,0,1,0,.25l0,.5c-.16.83-.29.58-.16,1.56-.09.13-.14-.07-.18-.46A21.69,21.69,0,0,0,53.72,76c-.2.87.05,2.93-.28,2.84a13.68,13.68,0,0,1,.27,2.32c-.4-1.45,0,3-.45,2.6.36,1.07.16,3.89.36,5.79a1.32,1.32,0,0,1-.07-.48c0,1.07-.14,1.38-.2,2.07.29.14.36,1.81.54,2.71-.28,1.32-.34-.8-.62-.38.24-.07.24,2.28.44,1.83-.18,1-.08.87-.33,1.39.37.17.06.93.29,1.77-.18,1.45-.35.37-.24,2-.11.76-.24-.66-.24-.66,0,1.63.27.77.43,1.11.08,1.94-.2.9-.35,1.56.08,1.21.34,2.15.33,3.05-.05.07-.07.24-.13,0,.23,1.28,0,3.8.3,5.3a.57.57,0,0,1-.07.19c.14-.24.28-.27.38-.23,0,.73.18,1.36,0,1.63a1.45,1.45,0,0,0-.12-.69l.08.76c-.27.69-.09-1-.29-1,.06.75.12,1.55.18,2.32,0,.38,0,.75.06,1.1a7.78,7.78,0,0,0,.06,1.16c0,.1-.14,0-.19-.34,0-.15,0-.34,0-.53s0-.27,0-.39c0-.51,0-.86-.14-.09l.09-1.77c-.4,1.35,0-1.08-.4.16,0,.59,0,1,0,1.43,0,.19,0,.37,0,.54s0,.24,0,.36,0,.3,0,.44a1.76,1.76,0,0,0,1,1.36,2.23,2.23,0,0,0,1.08.18h.85c.52-.14-.17-.21.35-.35,3.3-.26,2.6.65,5,.3a4.43,4.43,0,0,1,2.6-.32l-.59.29c2.25,0,1.29-.42,3.65-.22-.42.11-1.77.09-1.43.13,1.53.23,1.08-.17,2.25-.17l.25.26c2.39,0,5-.23,7.69-.27-.14.07-.6.15,0,.23,3.35-.13,7.15,0,10.38.19l1.24-.23c.29,0,.53.11.22.15,1.26.08.07-.14.67-.23s.95.13.49.19l2-.13a5.29,5.29,0,0,0,.86-.08,1.53,1.53,0,0,0,.75-.45,1.48,1.48,0,0,0,.37-.8,3.46,3.46,0,0,0,0-.46v-.39a36,36,0,0,1,.07-4.38l.07.45c.09-1.82-.46-2.06-.25-3.75l0,.33c.1-4-.11-8.33.23-11.35-.32-.58.14-3.92-.31-4.17a45.13,45.13,0,0,0,.46-4.8c0-.85-.28-1.26-.33-2.31l.23,0-.24-1.43.28-.76-.06-1c0,.39-.11.83-.17.77a13,13,0,0,1,.28-3.79l-.2-3.64a2.39,2.39,0,0,1,.15.81c-.13-1.36.27-.12.06-1.77,0,.24-.13-.13-.18-.17a30.44,30.44,0,0,0,.08-4.41l.16.29C93.51,67.26,93.4,64.27,93.4,61.23ZM62,82.61l.2,1.25c-.05.21-.13.37-.2.3Zm0,8.81a3.27,3.27,0,0,1,.18.85L62,92.7ZM76.13,117h-.79l.79,0Zm1.79-8.35s.08.12,0,.18H76.9C77,108.74,77.25,108.68,77.92,108.64Zm0,8.33c-.12-.07,0-.15.33-.14-.18,0,.58.09,1,.15Z"/><path class="cls-1" d="M62.21,77.11a.78.78,0,0,0,0,.19Z"/><polygon class="cls-1" points="93.37 85.03 93.31 85.04 93.36 85.32 93.37 85.03"/><path class="cls-1" d="M69.85,108.4a.6.6,0,0,0-.23-.05Z"/><path class="cls-1" d="M62.57,102.89a.39.39,0,0,0-.09-.11h0Z"/><path class="cls-1" d="M84,44v-.23C83.92,43.19,83.94,43.55,84,44Z"/><path class="cls-1" d="M84.47,71.6c0-.29-.07-.58-.1-.88C84.36,71.21,84.35,71.59,84.47,71.6Z"/><path class="cls-1" d="M79.9,18.71Z"/><path class="cls-1" d="M84.38,69.43a7,7,0,0,0,0,1.29A11.1,11.1,0,0,0,84.38,69.43Z"/><path class="cls-1" d="M62.67,77.28s0,0,0,0l0,.32Z"/><path class="cls-1" d="M62.62,76.93a1.16,1.16,0,0,0,0,.31Z"/><path class="cls-1" d="M62.56,76.27l.06.66A2.18,2.18,0,0,0,62.56,76.27Z"/><path class="cls-1" d="M62.59,87.65c0-.56.16-1.41.12-2.19l-.07-.08C62.76,85.75,62.46,87.11,62.59,87.65Z"/><polygon class="cls-1" points="84.28 83.61 84.16 84.41 84.34 84.78 84.28 83.61"/><path class="cls-1" d="M137.8,107.34c0,.33-.08.58-.17.52a.62.62,0,0,1,0,.27.47.47,0,0,0,0,.24c.18-.06.27-.26.26-.54a3.09,3.09,0,0,0-.11-.82c.05-.12.12,0,.16,0-.12-.39-.33-.83-.56-.58C137.62,106.84,137.52,106.93,137.8,107.34Z"/><path class="cls-1" d="M137.34,102.61a1.24,1.24,0,0,0,.06.29l0-.28Z"/><path class="cls-1" d="M129.41,107.81s0,0,0,0S129.47,107.82,129.41,107.81Z"/><path class="cls-1" d="M137.36,102.43v0Z"/><path class="cls-1" d="M115.9,105.44c.15-.09.2.76.19-.27A.89.89,0,0,1,115.9,105.44Z"/><path class="cls-1" d="M137.46,102.6c-.06,0-.08-.08-.1-.17,0,.07,0,.13,0,.19A0,0,0,0,0,137.46,102.6Z"/><path class="cls-1" d="M136.91,21.6a2.15,2.15,0,0,0,.15-.51A.39.39,0,0,0,137,21Z"/><polygon class="cls-1" points="116.16 65.67 116.11 65.68 116.16 65.83 116.16 65.67"/><path class="cls-1" d="M137.57,84.59a.26.26,0,0,0-.06.12S137.55,84.65,137.57,84.59Z"/><path class="cls-1" d="M137.52,88.67l-.08.58A4.55,4.55,0,0,0,137.52,88.67Z"/><path class="cls-1" d="M137.41,91.81a.22.22,0,0,0,.1.06h0Z"/><path class="cls-1" d="M137.66,56.77a4.1,4.1,0,0,1-.1-.48C137.54,56.55,137.54,56.76,137.66,56.77Z"/><path class="cls-1" d="M137.56,55.6a2.27,2.27,0,0,0,0,.69A2.66,2.66,0,0,0,137.56,55.6Z"/><path class="cls-1" d="M137.31,105.56s0,0,0,0l0-.17Z"/><path class="cls-1" d="M137.34,105.57l0,.17C137.37,105.66,137.37,105.6,137.34,105.57Z"/><path class="cls-1" d="M137.37,105.74a.65.65,0,0,0,0,.35Z"/><path class="cls-1" d="M137.28,101.16l.06,0c-.12-.19.18-.93,0-1.21A6.47,6.47,0,0,0,137.28,101.16Z"/><polygon class="cls-1" points="137.47 63.21 137.35 63.64 137.52 63.84 137.47 63.21"/><path class="cls-1" d="M108.48,9.9a2.42,2.42,0,0,0,.47,0,4.24,4.24,0,0,0,1-.11c.16.06,0,.12,0,.17.49-.12,1.06-.34.74-.57-.49.24-.6.14-1.13.43-.41,0-.72-.08-.65-.17a1.3,1.3,0,0,1-.41,0c-.14,0-.47,0-.56.17A1.52,1.52,0,0,1,108.48,9.9Z"/><path class="cls-1" d="M115.58,9.39a1.64,1.64,0,0,0-.36.07l.34,0Z"/><path class="cls-1" d="M106.59,20.7s0,0,0,0S106.59,20.64,106.59,20.7Z"/><path class="cls-1" d="M115.8,9.42h0Z"/><path class="cls-1" d="M106.69,43a1.28,1.28,0,0,1,.19-.34C106.73,42.73,106.68,41.65,106.69,43Z"/><path class="cls-1" d="M115.59,9.51a.28.28,0,0,1,.21-.09h-.24S115.53,9.49,115.59,9.51Z"/><path class="cls-1" d="M146.65,78.48l0,1.16C146.64,79.32,146.65,78.89,146.65,78.48Z"/><path class="cls-1" d="M146.65,83.09a3.51,3.51,0,0,0-.14.66.39.39,0,0,0,.05.13Z"/><polygon class="cls-1" points="106.61 93.05 106.67 93.04 106.62 92.85 106.61 93.05"/><path class="cls-1" d="M138.43,9.62s-.06,0-.15,0Z"/><path class="cls-1" d="M133.26,9.58l-.73-.08Z"/><path class="cls-1" d="M129.28,9.47a.51.51,0,0,0-.08.09h0Z"/><path class="cls-1" d="M146.4,57.33c0,.05,0,.1,0,.15C146.45,57.84,146.44,57.6,146.4,57.33Z"/><path class="cls-1" d="M145.9,38.5a6,6,0,0,1,.1.61C146,38.77,146,38.51,145.9,38.5Z"/><path class="cls-1" d="M146.66,78.35h0v0Z"/><path class="cls-1" d="M146,40a3.6,3.6,0,0,0,0-.87A6.32,6.32,0,0,0,146,40Z"/><path class="cls-1" d="M111.84,9.36s0,0,0,0l.21,0Z"/><path class="cls-1" d="M111.61,9.42a.56.56,0,0,0,.21,0Z"/><path class="cls-1" d="M111.16,9.48l.45-.06A1,1,0,0,0,111.16,9.48Z"/><path class="cls-1" d="M118.9,9.45a9.07,9.07,0,0,0-1.49-.12l0,.06C117.61,9.28,118.54,9.58,118.9,9.45Z"/><polygon class="cls-1" points="146.1 30.33 146.22 29.79 146.04 29.53 146.1 30.33"/><path class="cls-1" d="M122.3,63.14c0-.17.06-.25,0-.27C122.3,63,122.26,63.17,122.3,63.14Z"/><path class="cls-1" d="M120.7,66.66a.42.42,0,0,0-.1.22A1.47,1.47,0,0,1,120.7,66.66Z"/><path class="cls-1" d="M130.85,40.71l-.3.58C130.61,41.36,130.73,41,130.85,40.71Z"/><path class="cls-1" d="M134.38,30.74l.06-.19a1.13,1.13,0,0,0,0-.18Z"/><path class="cls-1" d="M146.11,2.39l.13,0a.53.53,0,0,0,0-.12Z"/><path class="cls-1" d="M117.71,73.81v0C117.77,73.58,117.73,73.69,117.71,73.81Z"/><path class="cls-1" d="M153,3.87a1.92,1.92,0,0,0,.17-.75,1.09,1.09,0,0,0-.38-.74,1.22,1.22,0,0,0-.6-.25c-.15,0-.24-.06-.19-.11a1,1,0,0,1-.65.08l0-.12-1.7.21c-1.32-.09.2-.48-1.72-.5-.72,0-2,.35-1.78.43s.74.07.76.19l-.65.06,0,.07h-.1a.76.76,0,0,0-.71.49L143,9.33l0-.1,0,.24-.09.25h-.07A8.09,8.09,0,0,1,141,9.57c.28,0,.67-.09.44-.09l-2,.1c.16.17.26.1.68.24a4.38,4.38,0,0,1-1.31.18c.9-.11,0-.28-.4-.38.07.06-.06.12,0,.17-1-.31-.18.35-1.6.14l.08-.09a10.46,10.46,0,0,1-1.6.14c-.24-.2.57-.09.6-.26-.81,0-1.59.39-2.32.19.34-.06.83-.06,1.18-.12a4.15,4.15,0,0,0-1.48-.21h.06L132,9.47l.35.07c-1,.53-2.06.09-3.42.44,1.32-.33.22-.19.32-.42-.35-.06-.87-.13-.72-.2-.65.19-1.08-.15-2,.13,0-.08-.69,0-.55-.2-.83.06.2.13.13.22-1.29.26-3-.3-4.88.05-1.47.13-1.85.35-3,.48h-.42c-.24-.11.5-.24.5-.24a7.88,7.88,0,0,0-2.17,0c.15-.07,0-.12-.24-.2-.61,0-.41.27-1.21.16a1.8,1.8,0,0,1,.61-.3c-.72.07-1.43.21-2.18.27-.2-.13.45-.19.71-.28a9.17,9.17,0,0,0-2.43.32l.54.08c-.3,0-.16-.18.07-.22.72-.16,1,.07,1.08.15l-.53.05c.54.43,2.13-.07,3.19-.05l-.36.26h-7a.76.76,0,0,0-.76.76v.11a1.06,1.06,0,0,0-.35-.15,4,4,0,0,1,.14-.44,1.19,1.19,0,0,1,.09-.52,1.31,1.31,0,0,0-.39,1h0c-.15.1-.29.41-.4,1.17l.22,1.18-.17.38v-1a2.2,2.2,0,0,0,.08,1.32.9.9,0,0,0-.19.5l.34,1.15c-.14.15-.28-.51-.36.26.16.55.31-.52.42.38-.16.57-.29.4-.16,1.06-.09.1-.15,0-.19-.31a10.21,10.21,0,0,0,.24,1.87c-.2.59,0,2-.29,1.93a6,6,0,0,1,.28,1.58c-.4-1,0,2-.45,1.77.36.73.16,2.65.36,3.94a.65.65,0,0,1-.07-.33,8.71,8.71,0,0,1-.21,1.42c.3.09.37,1.23.55,1.84-.28.89-.35-.54-.62-.26.24-.05.24,1.55.44,1.25-.18.68-.09.59-.33.94.37.12.06.64.29,1.21-.19,1-.35.25-.24,1.34-.11.52-.24-.45-.24-.45,0,1.11.27.52.43.75.08,1.33-.2.62-.35,1.07.08.82.33,1.46.32,2.07,0,0-.06.17-.12,0,.23.87,0,2.59.29,3.61a.22.22,0,0,1-.07.13.39.39,0,0,1,.39-.16c0,.5.18.93,0,1.11a.79.79,0,0,0-.12-.47l.08.52c-.27.47-.09-.71-.29-.71a21.05,21.05,0,0,1,.23,3c-.26.16-.09-1.82-.32-.79l.1-1.2c-.4.92,0-.73-.4.12-.08,1.58.13,1.77,0,3.35.14.35.21-.12.36.23.25,2.25-.65,1.77-.31,3.42a2.23,2.23,0,0,1,.33,1.77l-.29-.4c0,1.53.42.88.22,2.48-.12-.28-.1-1.2-.13-1-.23,1,.16.74.16,1.54l-.26.16c0,1.63.23,3.43.28,5.24-.08-.1-.16-.41-.24,0a59.18,59.18,0,0,1-.18,7.07l.22.84c0,.2-.1.36-.14.15-.09.86.14,0,.23.46s-.13.64-.2.33a27,27,0,0,1,.17,5.91l-.07-.31c-.09,1.24.46,1.4.25,2.55l0-.22a73.7,73.7,0,0,1-.23,7.72c.32.39-.14,2.67.31,2.84a23,23,0,0,0-.45,3.27c0,.58.28.86.32,1.57l-.23,0,.24,1-.28.52.06.67c0-.27.11-.57.18-.53a6.25,6.25,0,0,1-.29,2.58l.2,2.48c-.07,0-.1-.29-.14-.55.13.93-.28.08-.07,1.21.05-.16.14.09.18.11a14.13,14.13,0,0,0-.08,3l-.16-.19c0,.63,0,1.3,0,2l-.19.54c0-.07-.07,0,0-.19-.58,1.15.13.89-.53,2.2-.48.61.15-.77-.1-.37-.53,0-.55,1.67-1.16,2.48l0-.23a29.33,29.33,0,0,0-.93,2.91s0-.07-.06,0a19.64,19.64,0,0,1-.89,3.51c0-.41.09-.53-.17-.39-.16.5.35,0,0,1-.22.28-.57,1-.8,1l.34-.93c-.43.38-.44,1.2-.67,1.68l-.09-.11c-.5,1.44-.23,1.57-.82,3.09l.14-.13c0,1-.4.57-.56,1.68a1.88,1.88,0,0,0-.35.39,1.25,1.25,0,0,0,.32.69,1.21,1.21,0,0,0,.93.39c.85,0,1.36-.13,1.92-.16a5.74,5.74,0,0,1-1.27.27,3.25,3.25,0,0,1-1,0,1.39,1.39,0,0,1-.76-.48,1.35,1.35,0,0,0,.6.51,2.16,2.16,0,0,0,1,.12h.44l.3,0a1.32,1.32,0,0,0,.41-.09,2.51,2.51,0,0,1-.77.06,9.18,9.18,0,0,1,2.83-.35c-.09.26.48.32,1.22.34l.58,0h.32a3.38,3.38,0,0,0,.45,0,1.56,1.56,0,0,0,1.21-.91,1.55,1.55,0,0,1,.3-.43c.52-2,1.52-3.79,2.33-6-.34.3-.3.17-.23-.06,1,.08,2.13.18,3.32.17,1-.11.3-.18.77-.31.08.19,1.56.18.79.32,1.79,0,2.29,0,4.54-.2-.24-.08-.52-.12-.37-.18.41,0,.93.08.87.17l-.11,0c2.54-.29,5.85.57,7.87.16l-.11,0,2.09-.21c1,0-.57.15.14.27,2.26-.32,3.57,0,5.43-.17,1.44.58,5.11,0,7,.33l-.11-.14c.5-.13.6.08,1,.11-.05-.1-.54-.12-.23-.19l1,0a1.69,1.69,0,0,0,1.2-.45,1.67,1.67,0,0,0,.52-1.16v-1c0-1.09.05-2.19.09-3.29.09-2.21.21-4.43.27-6.61,0-1.6-.7-.91-.38-2.92l.25.57c-.3-3.22,0-6.58-.24-9.74a1,1,0,0,1,.13.51,5.47,5.47,0,0,0-.14-2.48c0-.49.14-.11.21-.41.11-.67-.23-1.68,0-2,0,0,0,0,0,.16,0-.56,0-1.84-.16-1.47.1-1.18-.1-2.26,0-3.2-.24-.62.11-2-.22-2.22.34.08.28-2.08.11-2.82.11.25.11-.65.25-.36,0-.85-.06-1.64-.24-1.49.41-1.57-.33-3.16.2-4-.19-2.54-.31-4.89-.39-7.17.34.09,0,2.52.39,2.43a45.48,45.48,0,0,1-.35-5.56c0-.56.15.31.2.5-.14-2.16,0-4.18-.15-6.1a1,1,0,0,1,.09.41c0-.38,0-.88-.1-.84l0,.37c-.23.6-.47-1.51-.59-1.57.44.64.11-1.9.67-.88,0-.25-.1-.56-.2-.51,0-.37.09-.49.21-.11a17.64,17.64,0,0,1-.25-2.11c.07,0,.1.26.19.38a6.9,6.9,0,0,1-.23-2.28c.05.06.11-.06.1.25a46.94,46.94,0,0,1-.24-5c.32.57.1-.67.39-.77l-.09-1.06-.14.43a25.37,25.37,0,0,1-.1-2.54l.11.69,0-1.73L146,41c-.15-.93-.36.1-.28-1.13a11,11,0,0,1,.17-1.4h0a4.93,4.93,0,0,1-.11-1.61c.09-.17.31.15.37,0-.24-.45-.06-2.16-.32-2.73.06.19.21.2.24.14l-.19-.38c.06-.43.09-.49.21-.42,0-1.29-.36.41-.21-1.12,0,.12.05.06.08.31.08-1.53-.12-3,0-4.37.29-.41.07,1.23.31.76-.05-2-.34-4.2-.27-6.17l0,.37a.34.34,0,0,1-.13-.28,10.17,10.17,0,0,1,.9-2c-.11.19-.16.29-.22.32C148,18,148.94,14.21,150.59,11a4,4,0,0,0,.4-1.74l.29-.13.13-1.1A6.78,6.78,0,0,1,152.32,6a7.93,7.93,0,0,0,.51-1c.08-.18.15-.38.22-.59s.07-.26.11-.4a2.83,2.83,0,0,0,.1-.47A2.55,2.55,0,0,1,153,3.87Zm-46,57c0-.22,0-.41,0-.53,0,.11,0,.26,0,.53ZM107,63c0-.27,0-.6,0-.95.08-.07.15,0,.15.23C107.13,62.17,107.09,62.68,107,63Zm30.37-16.68v0s0,0,0,0ZM122.05,9.86l.29.18h-.87A1.63,1.63,0,0,1,122.05,9.86Zm-2.72,8.74c1.74.08,3.49.21,5.21.27,1.26,0,.72-.7,2.3-.38l-.45.25c2.54-.3,5.19,0,7.68-.24-.15.05-.15.13-.4.13a3.43,3.43,0,0,0,2-.14c.39,0,.09.13.33.21a1.53,1.53,0,0,0,.43,0l.24,0c.08,0,.16,0,.15,0s.16-.08.12,0,0,.05-.07.06.1,0,.12,0,0,.08.15,0a.63.63,0,0,0,0,.13v.33c0,.23,0,.44,0,.65a5.94,5.94,0,0,1,0,1.2c.23.48-.12,1.59.22,1.75-.25-.05-.29.84-.22,1.56-.05.12-.09.23-.13.35v-.42c0,.13,0,.29,0,.45s-.2.56-.28.83c-.06-.1-.89,1.95-1.36,2.91l0-.05c.19.29-.24,1.29-.47,2.06-.14-.09-.16-.25-.07-.68l-.27.7a2.14,2.14,0,0,1-.15.9l-.13-.25a22.36,22.36,0,0,1-1,3.11c.1.09.46-.29.57-.14l-.24.65c-.05,0-.08-.14,0-.31a2.08,2.08,0,0,1-.19.62l0-.57c-.28.52,0,.34-.15.77-.14-.07-.22.28-.31.18A2.64,2.64,0,0,0,133,35a4.49,4.49,0,0,1-.7,1.2c.1,0,.19.07.07.44-.33.93-.28.25-.56.77,0,.26-.31.82-.11.91a.67.67,0,0,1-.31.37c-.09.52-.82,2.26-.39,1.8l.06-.12,0,.09c-.38,1.65-1.35,3.23-1.85,4.83l-.07,0c-.27,1-.73,2.1-.83,2.83-.1.27-.37.6-.41.45a7.2,7.2,0,0,1-.67,1.83c.15-.76-.2.21.19-.77a6.5,6.5,0,0,0-.79,2.15c0-.41-.49.61-.6,1.07l.38-.6c-.16.51-.34.93-.52,1.37l-.15-.33c-1,1.79-.8,3.61-1.82,4.88,0,.56.5-1,.53-.47a18,18,0,0,1-1.15,1.92c-.58,1.15-.07,1.25-.63,2.47.15-.13.43-.2.16.77s-.76.94-.62.36c.07-.21.13-.3.16-.28.07-.29.18-.68,0-.37l0,.15c-.25.4-.69,1.61-.73,1.27-.16.69,0,.34.26-.14-.54,1.08-.66,1.75-1.17,2.88.11-.17.28-.3.21-.12-.74,1.66-.12.81-.52,2-.37.6-.22-.35-.54.85-.35.67-.28.06-.25-.24a10.47,10.47,0,0,1-1.1,2.51l.14-.58a6,6,0,0,1-.29.9l.29-.26c-.15.32-.25.59-.32.56,0,.38.38-.15.28.57-.25.4-.41,1.36-.69,1.43.59-1.34-.28.06.12-1.11a4.29,4.29,0,0,1-.31.82s0-.06,0-.15c-.69,1.23,0,.69-.49,2-.06-.22-.35.23-.41.46.21-.55.31-.18.22.35a5.88,5.88,0,0,0-.46,1.42l.24-.5a3.63,3.63,0,0,1-.31,1.27c-.12,0,.14-.57,0-.37a3.63,3.63,0,0,1-.61,1.43c0-.17,0-.33.07-.48l.06.25c.1-1-.45-1.11-.24-2l0,.18a47.8,47.8,0,0,1,.22-6.09c-.32-.31.15-2.11-.3-2.24a14.69,14.69,0,0,0,.45-2.58c0-.45-.28-.68-.33-1.24h.24l-.25-.77.28-.41-.06-.53c0,.21-.1.45-.17.42a4,4,0,0,1,.28-2l-.19-2c.07,0,.1.23.14.43-.13-.73.27-.06.07-.95,0,.13-.14-.07-.19-.09a8.7,8.7,0,0,0,.09-2.36l.16.15c0-1.45-.08-3-.08-4.68-.07.58-.35.45-.38,0l.25-.19c-.15-.31-.1.5-.28-.13,0-.61.28-.41.36-.06l-.09-.74c.08,0,.12.13.21.17-.15-.3.25-1.27,0-1.71l.08,0c0-1.63-.09-2.37-.1-3.69-.21,0-.17-.55-.34-.94.07-1,.24-2.06.22-3.23-.11-.83-.18-.24-.31-.61.2-.06.18-1.23.32-.63,0-1.41,0-1.8-.2-3.58-.08.2-.11.41-.18.3,0-.32.08-.73.18-.69l0,.09c-.3-2,.56-4.62.16-6.21l0,.09-.21-1.65c0-.76.14.45.26-.11-.32-1.78,0-2.81-.17-4.28.58-1.13,0-4,.33-5.56l-.14.09a.59.59,0,0,1,0-.42l.06-.16c0-.06,0-.14.05-.12h-.06l0,.12c0,.07-.05.11-.08,0a.55.55,0,0,0,0-.16v-.09a.21.21,0,0,1,.08-.16.18.18,0,0,1,.17,0h.41C117.59,18.52,118.46,18.56,119.33,18.6Zm-3-8.76c.15.05.26.13.21.2h-1.06ZM138,102.69l-.2-.67c.05-.11.13-.2.2-.16Zm0-1.78c-.11.19-.23-.39-.23-.39a5.17,5.17,0,0,0,0,1.71c-.06-.12-.12,0-.2.19,0,.48.27.32.16,1a1.91,1.91,0,0,1-.3-.48c.07.56.21,1.12.28,1.71-.13.16-.2-.35-.28-.56a5.25,5.25,0,0,0,.32,1.91l.07-.42c0,.24-.18.12-.21-.05-.16-.57.07-.82.14-.85l.05.42c.43-.43-.07-1.68,0-2.53l.25.29v5.24a.76.76,0,0,1-.76.76h-.08a1.57,1.57,0,0,0,.11-.35.15.15,0,0,0,.13,0,.48.48,0,0,0,0-.27.19.19,0,0,1-.12.11h0c-.08-.15-.32-.29-.92-.4l-.93.22-.3-.17.78,0a1.44,1.44,0,0,0-1,.08.65.65,0,0,0-.39-.18l-.92.33c-.11-.14.41-.27-.2-.35-.43.16.41.31-.3.42-.44-.17-.31-.3-.83-.16-.08-.09,0-.15.24-.19-.47.11-1.23,0-1.47.24-.47-.2-1.57,0-1.53-.29a4.07,4.07,0,0,1-1.24.28c.78-.4-1.6,0-1.4-.45-.57.36-2.08.16-3.1.36a.4.4,0,0,1,.26-.07,5.47,5.47,0,0,1-1.12-.21c-.07.3-1,.37-1.45.55-.71-.29.43-.35.2-.62,0,.24-1.22.24-1,.44-.54-.18-.47-.09-.74-.34-.1.38-.51.07-1,.3-.78-.19-.2-.35-1-.24-.41-.11.35-.25.35-.25-.87,0-.41.28-.6.44-1,.08-.48-.21-.83-.35-.44,0-.34.12-.46.19s-.23.07-.27,0,0-.08.11-.09-.1-.06-.12-.13V107a5,5,0,0,0-.17-1.46.42.42,0,0,1,.07-.11.43.43,0,0,1-.38.13c.08-.24.15-.49.22-.73,0,.18,0,.37.12.37,0-.16,0-.34-.07-.52s.06-.22.1-.33c.33-.55-.06.62.36,0a7,7,0,0,0,0-1.15,12.74,12.74,0,0,1,.81-2.08l0,.19a3.08,3.08,0,0,1,.32-1.14s0,.19.12,0a6.72,6.72,0,0,1,.43-1.52l0,.47c.87-1.88.82-3.08,1.36-4.73.31.13,1-1.36,1.32-2.1l0,0c.88-2.24,1.18-3.92,1.83-6,.83-1.17,1.79-4.33,2.76-6.33-.18.29-.23-.15-.12-.53s.29-1.43.55-1.24l-.07.17c.42-.26.72-1.29,1-2.07l-.33-.27c1.32-1.85,1.81-5.44,2.72-6.38.09-.52.32-1.14.41-1.66l.19.1c.57-1.35.85-2,1.44-3.73v.4c.37-1-.13-1.43.19-2.31l.4-.15a33.13,33.13,0,0,0,1.86-5s.1.12,0,.4c.3-.78,1.34-3,.82-2.83.28.08.67-1.71.89-2.65l.15.21a5.17,5.17,0,0,1,.3-2c.12-.24.24-.16.06.16.42-.8.06-.72.55-1.7l0,.43a2.57,2.57,0,0,0,.27-1.35,4.61,4.61,0,0,1,.77-1.57,4.21,4.21,0,0,1,.13,1.47c0-.05-.1,0-.1-.2a30.84,30.84,0,0,1,.25,3.94c-.33-.45-.11.53-.39.61l.08.83.14-.33a17.79,17.79,0,0,1,.11,2l-.12-.54.06,1.36.1-.77c.15.74.36-.08.28.89a7,7,0,0,1-.17,1.11h0a3.05,3.05,0,0,1,.12,1.26c-.09.14-.32-.11-.38,0,.24.36.07,1.71.32,2.16-.06-.15-.21-.16-.24-.11l.2.3c-.07.33-.1.38-.22.33,0,1,.36-.32.21.88a1.19,1.19,0,0,1-.07-.25c-.08,1.21.12,2.34,0,3.45-.28.32-.07-1-.31-.6.05,1.6.34,3.32.28,4.87l0-.29c.4.21-.2,1.15,0,1.93,0-.19-.22-.25-.18-.2a30.14,30.14,0,0,0,.23,3.78l-.11-.2c-.09.63-.05,1.65-.1,2.32.11.2.09.59.24.36-.59,2.08.32,4-.17,5.82,0-.22-.1-.53-.1-.35l.1,1.57c.18-.13.11-.21.24-.54a2.61,2.61,0,0,1,.19,1c-.12-.71-.28,0-.38.31.05,0,.11,0,.17,0-.32.82.35.13.14,1.26l-.09-.06a7.25,7.25,0,0,1,.14,1.26c-.2.18-.1-.45-.26-.48,0,.64.38,1.26.18,1.83-.06-.27-.06-.66-.11-.93a2.82,2.82,0,0,0-.22,1.17v0l-.11,1.08.06-.27c.53.79.1,1.62.45,2.69-.33-1-.19-.17-.42-.25-.07.27-.14.69-.2.57.18.51-.15.85.12,1.56-.07,0,0,.54-.19.43.06.66.13-.16.22-.1.25,1-.31,2.39,0,3.85.13,1.16.35,1.46.48,2.4Zm0-3a1.05,1.05,0,0,1-.18-.45l.18-.23Zm0-17.15c-.07,0-.14-.19-.18-.56a.28.28,0,0,1,.18,0Z"/><path class="cls-1" d="M131,40.42l0,0,0,0A.22.22,0,0,1,131,40.42Z"/><path class="cls-1" d="M127.7,48.74l-.16-.13C127.38,49.11,127.61,48.64,127.7,48.74Z"/><polygon class="cls-1" points="124.35 56.52 124.1 57.37 124.29 56.74 124.35 56.52"/><path class="cls-1" d="M100.27,121.62a2.06,2.06,0,0,0,.2-.46,1.58,1.58,0,0,0-.31.45,2,2,0,0,0-.12.31,2.39,2.39,0,0,0-.07.35,2.17,2.17,0,0,1,.16-.36Z"/><polygon class="cls-1" points="126.85 75.58 127.06 74.82 126.92 75.16 126.85 75.58"/><path class="cls-1" d="M170.51,100.12c-.31.31-.42.24-.75.61-.31.09-.57,0-.54-.06-.07.08-.24,0-.4,0a.4.4,0,0,0,.49.24,2.71,2.71,0,0,0,.76-.28c.12,0,0,.11,0,.16C170.42,100.59,170.8,100.29,170.51,100.12Z"/><path class="cls-1" d="M174.18,99.25a1.26,1.26,0,0,0-.26.13l.25-.09S174.18,99.27,174.18,99.25Z"/><path class="cls-1" d="M169.38,92.62s0,0,0,0S169.38,92.67,169.38,92.62Z"/><path class="cls-1" d="M174.36,99.24l.26-.06Z"/><path class="cls-1" d="M169.08,75.7c.16-.09.21.74.2-.26A.81.81,0,0,1,169.08,75.7Z"/><path class="cls-1" d="M174.21,99.37a.2.2,0,0,1,.15-.13l-.19.05S174.17,99.36,174.21,99.37Z"/><path class="cls-1" d="M190.1,37.39l0-.9C190.11,36.74,190.1,37.07,190.1,37.39Z"/><path class="cls-1" d="M190.1,33.82a2.21,2.21,0,0,0,.15-.5.39.39,0,0,0-.06-.11Z"/><polygon class="cls-1" points="169.35 36.74 169.3 36.74 169.34 36.89 169.35 36.74"/><path class="cls-1" d="M187.54,96.43l-.57,0A5.47,5.47,0,0,0,187.54,96.43Z"/><path class="cls-1" d="M184.52,97a.37.37,0,0,0,0,.11h0Z"/><path class="cls-1" d="M190.35,53.72a.49.49,0,0,0,0-.12C190.3,53.33,190.32,53.52,190.35,53.72Z"/><path class="cls-1" d="M190.85,68.26a3.41,3.41,0,0,1-.1-.46C190.73,68.06,190.73,68.26,190.85,68.26Z"/><path class="cls-1" d="M190.09,37.48h0v0Z"/><path class="cls-1" d="M190.75,67.12a2.21,2.21,0,0,0,0,.68A3.09,3.09,0,0,0,190.75,67.12Z"/><path class="cls-1" d="M171.35,99.89l.15-.06-.14,0A0,0,0,0,1,171.35,99.89Z"/><path class="cls-1" d="M171.35,99.89l-.16.06A.24.24,0,0,0,171.35,99.89Z"/><path class="cls-1" d="M171.19,100a.72.72,0,0,0-.32.13Z"/><path class="cls-1" d="M175.52,99c.17-.16.93,0,1.18-.21a5.69,5.69,0,0,0-1.15.14Z"/><polygon class="cls-1" points="190.66 74.58 190.53 75 190.71 75.19 190.66 74.58"/><path class="cls-1" d="M162.1,2.35a4.57,4.57,0,0,0,1-.12c.15.06,0,.12,0,.17.48-.12,1-.34.72-.57-.47.25-.59.14-1.1.43-.41,0-.71-.08-.64-.17a1.48,1.48,0,0,1-.4,0h-.13l-.17,0a.51.51,0,0,0-.25.15A7.16,7.16,0,0,1,162.1,2.35Z"/><path class="cls-1" d="M168.6,1.79a2.56,2.56,0,0,0-.36.07l.33,0Z"/><path class="cls-1" d="M159.78,12.9h0C159.79,12.85,159.78,12.84,159.78,12.9Z"/><path class="cls-1" d="M168.81,1.82h.35A2,2,0,0,0,168.81,1.82Z"/><path class="cls-1" d="M159.88,34.69a.89.89,0,0,1,.19-.33C159.92,34.47,159.86,33.41,159.88,34.69Z"/><path class="cls-1" d="M168.6,1.91a.28.28,0,0,1,.21-.09h-.24S168.55,1.9,168.6,1.91Z"/><path class="cls-1" d="M199.84,68.68l0,1.14C199.83,69.5,199.84,69.08,199.84,68.68Z"/><path class="cls-1" d="M199.84,73.2a2.7,2.7,0,0,0-.14.64.39.39,0,0,0,.05.13Z"/><path class="cls-1" d="M199.62,91.55l.25.56c-.3-3.15,0-6.44-.24-9.53a1,1,0,0,1,.13.49,5.22,5.22,0,0,0-.14-2.42c0-.48.13-.11.21-.41.11-.65-.23-1.64-.05-2,0,0,0,.06.05.16-.05-.55,0-1.8-.17-1.43.1-1.16-.09-2.22,0-3.14-.24-.6.11-2-.22-2.18.34.09.27-2,.11-2.76.11.25.11-.64.25-.35,0-.84-.07-1.6-.24-1.46.41-1.54-.33-3.09.19-4-.18-2.48-.31-4.78-.39-7,.35.08,0,2.47.4,2.37a43.44,43.44,0,0,1-.35-5.44c0-.55.14.31.2.49-.14-2.12,0-4.09-.15-6a1.28,1.28,0,0,1,.09.4c0-.37,0-.86-.11-.82l.05.36c-.23.6-.48-1.47-.6-1.54.45.63.12-1.86.68-.86,0-.24-.1-.55-.21-.49,0-.36.1-.48.21-.11a19.25,19.25,0,0,1-.24-2.06c.07,0,.1.24.19.37a6.68,6.68,0,0,1-.23-2.24c0,.06.1-.06.1.25a47.64,47.64,0,0,1-.25-4.9c.33.56.11-.66.39-.76l-.08-1-.14.42c0-.91-.2-1.71-.11-2.48l.12.67-.05-1.7-.11,1c-.15-.91-.36.1-.28-1.1a10.5,10.5,0,0,1,.17-1.38h0A4.77,4.77,0,0,1,199,28c.09-.17.31.14.37,0-.24-.44-.07-2.12-.32-2.68.06.19.21.2.24.14l-.19-.37c.06-.42.09-.48.21-.41,0-1.26-.36.4-.21-1.1,0,.12,0,.06.08.31.08-1.5-.13-2.9,0-4.28.28-.41.07,1.2.31.74-.05-2-.34-4.12-.27-6l0,.36c-.4-.27.2-1.44,0-2.41,0,.24.23.31.18.25a45.88,45.88,0,0,0-.22-4.69l.1.24c.09-.77.05-2,.1-2.88-.1-.25-.09-.73-.24-.44a6.41,6.41,0,0,0,.16-1,2,2,0,0,0-.14-1.21C198.66,1.72,197.44,2,197,2A12.06,12.06,0,0,1,193.5,2c.27,0,.65-.09.43-.09L192,2c.15.17.26.1.67.24a4.19,4.19,0,0,1-1.29.19c.88-.12,0-.29-.38-.38.06.05-.07.11,0,.16-1-.31-.17.36-1.56.15l.07-.1a11.15,11.15,0,0,1-1.57.15c-.23-.21.56-.1.6-.27-.79,0-1.56.39-2.28.19.34-.06.82-.06,1.16-.12A4.2,4.2,0,0,0,185.91,2H186l-1.33-.11.34.07c-1,.53-2,.1-3.35.44,1.3-.33.22-.19.31-.42-.34-.06-.85-.13-.71-.2-.63.19-1.05-.14-1.94.13,0-.08-.67,0-.53-.2-.82.06.2.13.13.23-1.26.25-3-.31-4.78,0-1.44.13-1.81.35-3,.48h-.41c-.23-.11.49-.24.49-.24a8.43,8.43,0,0,0-2.13,0c.15-.06,0-.12-.23-.2-.6,0-.4.27-1.19.16a2.2,2.2,0,0,1,.6-.3c-.71.07-1.4.21-2.13.27-.2-.13.44-.19.69-.28a8.65,8.65,0,0,0-2.37.32l.52.08c-.3,0-.15-.18.07-.21.7-.17,1,.07,1,.14l-.52,0c.54.43,2.09-.07,3.14,0l-.36.26h-6.79a.76.76,0,0,0-.76.76v.11a1.48,1.48,0,0,0-.35-.15,4,4,0,0,1,.14-.43,1.07,1.07,0,0,1,.07-.52,1.34,1.34,0,0,0-.37,1h0c-.14.1-.28.4-.39,1.15l.22,1.16-.17.37v-1A2,2,0,0,0,160,6.2a.79.79,0,0,0-.19.48l.33,1.14c-.13.14-.27-.51-.35.25.16.53.31-.51.42.37-.16.55-.3.39-.16,1-.09.09-.15,0-.19-.3A9.72,9.72,0,0,0,160.1,11c-.2.57.05,2-.29,1.89a6.18,6.18,0,0,1,.28,1.55c-.4-1,0,2-.45,1.73.36.71.16,2.59.36,3.86a.63.63,0,0,1-.07-.32,8.29,8.29,0,0,1-.21,1.38c.3.09.37,1.2.55,1.81-.29.87-.35-.54-.62-.26.24,0,.24,1.52.44,1.22-.18.67-.09.58-.34.93.38.11.07.62.3,1.18-.19,1-.35.25-.24,1.31-.11.51-.24-.44-.24-.44,0,1.09.27.51.43.74.08,1.3-.21.6-.35,1,.07.81.33,1.43.32,2,0,.05-.06.17-.12,0,.22.85,0,2.54.29,3.53a.24.24,0,0,1-.07.13.38.38,0,0,1,.39-.15c0,.49.18.9,0,1.09a.79.79,0,0,0-.12-.47l.08.51c-.27.46-.1-.69-.29-.69a21.56,21.56,0,0,1,.23,2.91c-.26.16-.09-1.78-.32-.76l.1-1.18c-.41.9,0-.72-.41.11-.07,1.55.13,1.74.06,3.28.14.35.21-.11.36.24.25,2.19-.65,1.73-.31,3.34a2.14,2.14,0,0,1,.33,1.74l-.3-.4c0,1.5.42.86.23,2.43-.12-.28-.1-1.18-.13-1-.23,1,.16.72.16,1.5l-.26.17c0,1.6.23,3.36.28,5.13-.08-.1-.16-.4-.24,0a56.69,56.69,0,0,1-.18,6.92l.22.82c0,.2-.1.36-.15.15-.08.84.15,0,.23.45s-.12.63-.19.33a25.87,25.87,0,0,1,.17,5.78l-.07-.31c-.09,1.22.46,1.38.25,2.5l0-.21a73.38,73.38,0,0,1-.23,7.56c.32.39-.14,2.61.31,2.78a19.65,19.65,0,0,0-.45,3.2c0,.57.27.85.32,1.55h-.23l.24,1-.28.51.06.66c0-.26.11-.56.18-.52a6,6,0,0,1-.29,2.53l.2,2.43a1.21,1.21,0,0,1-.15-.54c.13.9-.27.08-.06,1.18.05-.16.14.08.18.11a13.56,13.56,0,0,0-.08,2.94l-.16-.19c0,1.8.08,3.79.07,5.81.08-.72.36-.56.38,0l-.24.23c.15.39.09-.61.28.17,0,.76-.28.51-.36.07l.08.92c-.07.06-.11-.16-.21-.21.16.37-.24,1.58,0,2.12l-.07.06c0,2,.08,2.93.1,4.58.11,0,.13.33.2.69a1.33,1.33,0,0,0,.67.9,1.91,1.91,0,0,0,1.33.4l1,.07c.67,0,1.37.09,2.1.08,1-.11.3-.18.76-.31.08.2,1.53.18.78.32l1.12,0,.47,0a2.9,2.9,0,0,0,.64-.09c.6-.16,1.25-.35,2.31-.67-.25,0-.53,0-.4-.1.38-.12.91-.12.87,0l-.1,0c2.36-.83,5.72-.7,7.56-1.53l-.11,0,2-.66c.92-.17-.52.27.18.23,2.09-.8,3.42-.72,5.15-1.33,1.51.25,4.88-1.14,6.81-1.2l-.13-.1c.45-.24.59-.06,1-.11-.07-.09-.54,0-.26-.14.74-.2,1.5-.38,2.26-.55l1.16-.25,1.3-.26A1.72,1.72,0,0,0,199.6,102a2.22,2.22,0,0,0,.13-.86l0-.56.09-2.05c0-1.37.1-2.73.16-4.08C200,92.85,199.3,93.52,199.62,91.55ZM160.2,52.2c0-.22,0-.4,0-.52,0,.11,0,.26,0,.52Zm0,2.13c0-.26,0-.58,0-.92.07-.08.15,0,.15.22C160.32,53.51,160.27,54,160.21,54.33ZM174.93,2.26l.29.18h-.86A1.63,1.63,0,0,1,174.93,2.26Zm-5.61,0c.14,0,.25.13.2.2h-1Zm-.38,57.7c0,.21,0,.46,0,.73-.07.06-.15,0-.14-.17C168.84,60.59,168.88,60.19,168.94,59.94Zm5.3,40,.6-.34c.12,0,.22.08.2.16Zm4.52-1a1.07,1.07,0,0,1,.4-.27l.26.12Zm12-3.5c.06,0,.12.07.17.08-.21.23-.19.25-.13.38s.05.36-.51.34l0-.1a5.74,5.74,0,0,1-1.15.41c-.22-.16.41-.19.4-.36-.6.15-1.11.65-1.71.57.25-.11.62-.2.86-.31a2.69,2.69,0,0,0-1.16,0h.05l-1.06.12h.28c-.64.69-1.53.44-2.48,1,.93-.55.13-.22.15-.46-.27,0-.69,0-.59-.08-.44.29-.84,0-1.46.46-.05-.06-.52.11-.45-.1-.62.2.17.1.14.2-.91.46-2.35.21-3.67.87-1.08.37-1.32.65-2.19,1l-.32.07c-.2-.07.33-.32.33-.32a4.68,4.68,0,0,0-1.64.37c.1-.09,0-.12-.22-.16-.46.12-.25.33-.88.36a1.57,1.57,0,0,1,.39-.39c-.53.19-1,.44-1.58.63-.18-.09.3-.27.48-.39a5.5,5.5,0,0,0-1.76.72l.42,0c-.23.06-.16-.14,0-.22.51-.27.8-.1.85,0l-.39.14c.5.33,1.59-.43,2.4-.59l-.22.32L169.3,101a.75.75,0,0,1-.92-.74v-.08a1.5,1.5,0,0,0,.34.11.13.13,0,0,0,0,.12.46.46,0,0,0,.26,0,.2.2,0,0,1-.11-.11h0c.15-.07.29-.3.4-.9l-.21-.91.17-.29v.76a1.34,1.34,0,0,0-.08-1,.65.65,0,0,0,.19-.38l-.34-.89c.14-.11.28.4.35-.2-.16-.42-.31.4-.41-.29.16-.44.29-.31.15-.83.09-.07.15,0,.19.24-.11-.45,0-1.2-.23-1.44.2-.45-.05-1.54.28-1.49a4.23,4.23,0,0,1-.28-1.22c.41.76,0-1.57.46-1.37-.36-.56-.16-2-.36-3a.46.46,0,0,1,.07.25,5.35,5.35,0,0,1,.2-1.09c-.3-.07-.36-1-.55-1.42.29-.69.35.42.63.2-.24,0-.24-1.2-.44-1,.17-.52.08-.45.33-.72-.37-.1-.06-.5-.29-.93.18-.77.35-.2.23-1,.12-.4.25.35.25.35,0-.86-.28-.41-.44-.59-.08-1,.21-.47.35-.82-.07-.64-.33-1.13-.32-1.6,0,0,.07-.13.12,0-.22-.68,0-2-.29-2.79,0-.06.05-.09.07-.1a.39.39,0,0,1-.38.12c0-.38-.18-.71,0-.86a.51.51,0,0,0,.13.37l-.08-.4c.26-.37.09.54.29.54a11.66,11.66,0,0,1-.23-2.29c.25-.13.08,1.4.31.6l-.1.93c.41-.71,0,.56.41-.09.08-1.22-.13-1.37-.06-2.59-.14-.27-.21.09-.35-.18-.26-1.74.65-1.37.3-2.64a1.43,1.43,0,0,1-.32-1.37l.29.31c0-1.18-.42-.68-.22-1.92.11.22.09.94.13.76.23-.81-.17-.57-.17-1.19l.26-.13c0-1.26-.23-2.65-.27-4,.07.07.15.31.23,0a35.3,35.3,0,0,1,.19-5.46l-.22-.65c0-.15.1-.28.14-.12.08-.66-.14,0-.23-.35s.13-.5.2-.26a16.15,16.15,0,0,1-.17-4.56l.06.24c.09-1-.45-1.08-.25-2l0,.17a47.71,47.71,0,0,1,.23-6c-.32-.3.15-2.06-.3-2.19a14,14,0,0,0,.45-2.52c0-.45-.28-.67-.33-1.22h.24l-.25-.75.28-.4-.06-.52c0,.2-.1.44-.17.41a3.79,3.79,0,0,1,.28-2l-.2-1.91c.08,0,.11.22.15.42-.13-.71.27-.06.07-.93-.06.13-.14-.07-.19-.09a8.4,8.4,0,0,0,.08-2.31l.17.15c0-1.42-.08-3-.08-4.59-.07.57-.35.44-.38,0l.25-.19c-.16-.3-.1.49-.28-.13,0-.59.28-.4.36-.06l-.09-.72c.08,0,.12.13.21.17-.15-.29.25-1.25,0-1.68l.07,0c0-1.59-.08-2.31-.09-3.61-.21,0-.17-.53-.34-.92.07-1,.24-2,.22-3.16-.11-.81-.18-.24-.31-.6.19-.06.18-1.21.32-.61,0-.35,0-.63,0-.89a5.06,5.06,0,0,0,0-.56c-.06-.13,0-.42.35-.44-.07-.08-.2-.11-.16-.18s.62.08.55.18l-.09,0c2-.3,4.52.56,6.08.16l-.09,0,1.62-.21c.75,0-.44.14.11.26,1.74-.32,2.75.05,4.19-.17,1.11.58,3.94,0,5.45.33l-.09-.13c.39-.14.47.07.75.1,0-.1-.42-.12-.18-.19l1.25,0h1a.21.21,0,0,1,.23.21.28.28,0,0,1,0,.09v.13l0,.64c-.09,1.71-.21,3.43-.27,5.11,0,1.23.7.7.38,2.25l-.25-.44c.3,2.49,0,5.09.24,7.52-.06-.14-.13-.15-.13-.39a3.28,3.28,0,0,0,.14,1.91c0,.38-.13.09-.21.33-.11.51.23,1.29,0,1.56,0,.05-.06-.14-.07-.23.09.33,0,1.56.19,1.24-.1.91.09,1.75,0,2.48.23.47-.12,1.56.21,1.71-.34-.06-.27,1.6-.11,2.18-.1-.19-.11.5-.25.28,0,.66.07,1.26.24,1.14-.41,1.22.33,2.45-.19,3.13.18,2,.31,3.77.39,5.53-.35-.06,0-1.94-.4-1.87a28.44,28.44,0,0,1,.36,4.29c-.05.43-.15-.24-.21-.39.14,1.67,0,3.23.15,4.72,0,0-.06-.17-.09-.32,0,.3,0,.68.11.65l-.05-.28c.23-.47.48,1.16.6,1.21-.45-.5-.12,1.47-.68.68,0,.19.1.43.21.39,0,.28-.09.38-.21.09.08,1,.25.67.24,1.62-.07,0-.1-.19-.19-.29a4.06,4.06,0,0,1,.23,1.77c0-.05-.1,0-.1-.2a29.69,29.69,0,0,1,.25,3.86c-.33-.44-.11.52-.39.6l.08.81.14-.32a17.11,17.11,0,0,1,.11,2l-.12-.53,0,1.34.11-.76c.15.72.36-.08.28.87a6.62,6.62,0,0,1-.17,1.09h0a3,3,0,0,1,.12,1.25c-.1.13-.32-.11-.38,0,.24.34.07,1.66.32,2.11-.06-.15-.21-.16-.24-.11l.19.29c-.06.33-.09.38-.21.33,0,1,.36-.32.21.86,0-.09-.05,0-.08-.24-.08,1.18.13,2.28,0,3.37-.28.32-.07-.95-.31-.58.05,1.57.34,3.25.28,4.76l0-.28c.4.21-.2,1.13,0,1.9,0-.19-.23-.25-.18-.2a27.18,27.18,0,0,0,.23,3.7l-.11-.19c-.09.61-.05,1.61-.1,2.27.1.2.09.58.24.35-.59,2,.31,3.89-.18,5.7,0-.22-.09-.52-.09-.35l.1,1.55c.17-.13.1-.21.24-.53a2.45,2.45,0,0,1,.19,1C191,94.51,190.85,95.27,190.75,95.38ZM169,61.62h0c0,.18,0,.32,0,.42C169,62,169,61.83,169,61.62Zm22.22,30.19c-.07,0-.14-.18-.18-.54a.28.28,0,0,1,.18,0Zm5.21-89.37h-.71c.05-.07.24-.14.69-.18A.22.22,0,0,1,196.38,2.44Z"/><polygon class="cls-1" points="159.8 83.75 159.86 83.74 159.81 83.56 159.8 83.75"/><path class="cls-1" d="M191,2a.44.44,0,0,0-.16-.06Z"/><path class="cls-1" d="M185.91,2l-.72-.08C185.5,1.94,185.73,2,185.91,2Z"/><path class="cls-1" d="M182,1.87a.51.51,0,0,0-.08.09h0Z"/><path class="cls-1" d="M199.59,48a.66.66,0,0,0,0,.15C199.64,48.47,199.62,48.23,199.59,48Z"/><path class="cls-1" d="M199.09,29.53a5.58,5.58,0,0,1,.1.59C199.21,29.79,199.21,29.54,199.09,29.53Z"/><path class="cls-1" d="M199.85,68.55h0v0Z"/><path class="cls-1" d="M199.19,31a3.52,3.52,0,0,0,0-.86A6.17,6.17,0,0,0,199.19,31Z"/><path class="cls-1" d="M164.93,1.77s0,0,0,0l.21,0Z"/><path class="cls-1" d="M164.7,1.83a.48.48,0,0,0,.21,0Z"/><path class="cls-1" d="M164.26,1.88l.44,0A.88.88,0,0,0,164.26,1.88Z"/><path class="cls-1" d="M171.85,1.85a10,10,0,0,0-1.46-.12l0,.07C170.58,1.68,171.49,2,171.85,1.85Z"/><polygon class="cls-1" points="199.29 21.52 199.41 20.99 199.23 20.74 199.29 21.52"/></svg>